<?xml version="1.0" standalone="no"?>
<!DOCTYPE svg PUBLIC "-//W3C//DTD SVG 20010904//EN"
 "http://www.w3.org/TR/2001/REC-SVG-20010904/DTD/svg10.dtd">
<svg version="1.0" xmlns="http://www.w3.org/2000/svg"
 width="300.000000pt" height="300.000000pt" viewBox="0 0 300.000000 300.000000"
 preserveAspectRatio="xMidYMid meet">
<metadata>
Created by potrace 1.11, written by Peter Selinger 2001-2013
</metadata>
<g transform="translate(0.000000,300.000000) scale(0.100000,-0.100000)"
fill="#000000" stroke="none">
<path d="M1141 2970 c-1 -3 -10 -37 -22 -75 -11 -39 -22 -77 -24 -85 -2 -8
-34 -118 -70 -245 -37 -126 -73 -255 -81 -285 -8 -30 -26 -94 -40 -142 -14
-48 -23 -91 -20 -96 4 -7 42 -8 91 -3 6 1 11 9 12 19 1 9 8 40 16 67 27 88 67
229 73 255 2 14 8 34 11 45 4 11 8 22 8 25 1 3 7 25 15 50 17 58 21 72 22 87
2 17 18 5 18 -12 0 -8 6 -34 14 -57 8 -24 39 -135 70 -248 32 -113 61 -212 65
-220 4 -8 24 -15 47 -16 21 -1 42 -2 45 -3 6 -1 11 -18 25 -79 1 -8 5 -16 8
-19 2 -3 117 -5 255 -4 138 1 251 -3 251 -7 0 -5 -15 -19 -32 -32 -18 -13 -49
-38 -68 -56 -25 -23 -293 -243 -329 -270 -4 -4 52 -94 59 -94 3 0 19 13 36 28
17 15 89 74 159 132 70 58 137 113 149 124 21 19 193 160 250 206 40 32 90 80
85 81 -2 0 -192 1 -421 2 -229 1 -419 4 -422 7 -2 3 -7 17 -9 30 -5 26 -12 50
-97 360 -28 102 -62 226 -75 275 -39 142 -74 260 -74 255z"/>
<path d="M43 2038 c-2 -5 -1 -8 4 -8 4 0 24 -14 43 -31 19 -17 55 -47 79 -68
25 -20 68 -56 96 -81 28 -25 67 -58 86 -74 19 -16 50 -43 70 -60 20 -17 60
-52 90 -77 30 -26 88 -76 131 -113 l76 -66 -19 -60 c-10 -34 -21 -71 -23 -83
-2 -12 -12 -49 -22 -82 -10 -33 -19 -64 -20 -70 -7 -25 -65 -228 -84 -295 -12
-41 -24 -86 -26 -99 -3 -13 -9 -32 -15 -43 -5 -10 -8 -18 -5 -18 2 0 -4 -24
-13 -53 -26 -75 -33 -107 -22 -107 5 0 11 3 13 8 3 7 48 45 238 202 41 34 86
72 100 83 14 12 50 42 80 67 30 25 60 49 66 55 6 5 50 42 97 80 47 39 86 72
86 75 0 3 -15 23 -33 44 l-34 39 -78 -64 c-43 -35 -88 -73 -100 -84 -11 -11
-52 -45 -89 -75 -37 -30 -89 -74 -114 -97 -25 -23 -47 -38 -49 -33 -2 5 15 75
38 157 23 81 58 204 77 273 l34 125 -38 32 -37 32 16 51 c16 50 16 52 -5 70
-12 10 -33 29 -47 41 -14 11 -45 38 -70 58 -25 20 -47 39 -50 42 -3 4 -52 46
-110 94 -58 48 -106 91 -108 95 -2 4 108 8 243 9 136 0 250 3 254 6 11 6 34
96 26 103 -8 8 -826 8 -832 0z"/>
<path d="M1281 1526 c-41 -15 -94 -67 -117 -114 -25 -53 -23 -148 5 -205 27
-55 71 -94 158 -139 71 -36 131 -88 153 -132 9 -16 15 -56 15 -90 -1 -159
-143 -244 -248 -148 -23 21 -47 76 -54 122 -3 19 -7 37 -9 39 -2 2 -25 -5 -51
-16 -57 -23 -62 -39 -33 -115 26 -71 102 -150 162 -170 145 -48 286 35 333
197 49 166 -41 336 -220 415 -93 40 -137 111 -113 181 24 72 85 93 135 47 12
-11 25 -33 28 -49 4 -16 8 -29 11 -29 3 0 93 41 103 47 11 7 -55 112 -83 131
-60 41 -115 50 -175 28z"/>
<path d="M1755 1398 c-2 -7 -3 -44 -3 -83 0 -147 0 -147 -24 -145 -72 6 -75 4
-75 -50 1 -54 4 -57 60 -55 20 1 37 -3 38 -9 0 -6 2 -121 2 -256 l2 -245 52 0
52 -1 0 249 c-1 137 2 252 6 255 4 4 25 7 48 7 l42 0 0 54 0 55 -47 -1 -48 -1
-1 51 c-1 29 0 82 0 120 l1 67 -50 0 c-32 0 -52 -5 -55 -12z"/>
<path d="M2263 1220 c-53 -11 -89 -30 -134 -72 -218 -199 -103 -596 176 -607
76 -3 158 36 180 84 8 16 10 11 13 -27 l3 -47 55 1 54 2 0 308 c0 169 -3 308
-7 309 -5 0 -28 1 -53 2 -38 1 -45 -2 -50 -21 -5 -22 -6 -22 -39 12 -49 50
-122 71 -198 56z m112 -124 c41 -18 92 -70 111 -115 20 -48 18 -157 -5 -206
-31 -67 -109 -124 -166 -120 -102 6 -187 109 -187 228 0 151 129 262 247 213z"/>
<path d="M2872 1170 c-18 -11 -35 -27 -38 -35 -7 -18 -26 -20 -23 -2 5 41 -12
47 -103 38 -3 -1 -6 -140 -6 -310 l1 -310 53 0 c44 0 54 4 55 17 0 9 2 98 3
197 2 165 4 183 25 222 24 44 52 68 95 79 14 3 26 10 26 15 0 10 -48 109 -53
109 -1 0 -17 -9 -35 -20z"/>
</g>
</svg>
